<svg id="Lager_1" data-name="Lager 1" xmlns="http://www.w3.org/2000/svg" viewBox="0 0 1609.31 345.71"><defs><style>.cls-1{fill:#2d2d2b;}.cls-2{fill:#28b6c3;}.cls-3{fill:#00a35a;}</style></defs><path class="cls-1" d="M605.2,314.24c0-10.35-8-16.63-18.49-16.63H559.17v33.27h27.54c10.54,0,18.49-6.28,18.49-16.64m-2.59,83.56L578.39,354H559.17V397.8H532.92V274.5h57.67c25.7,0,41.41,16.82,41.41,39.74,0,21.82-13.68,33.46-27,36.6l27.73,47Z" transform="translate(-149.27 -149.96)"/><path class="cls-1" d="M685.36,325c-14.6,0-20.89,10.9-22,19.77h44c-.56-8.5-6.47-19.77-22-19.77m-46.21,28.09c0-25.88,19-46.77,46.21-46.77,26.62,0,44.74,20,44.74,49.17v5.18H663.74c1.47,11.28,10.53,20.7,25.69,20.7,7.58,0,18.11-3.32,23.84-8.87l10.36,15.16C714.75,395.76,700.7,400,686.84,400c-27.17,0-47.69-18.3-47.69-46.95" transform="translate(-149.27 -149.96)"/><path class="cls-1" d="M807.59,366V337.15c-3.88-5.91-12.38-10.16-20.15-10.16-13.31,0-22.55,9.24-22.55,24.58s9.24,24.58,22.55,24.58c7.77,0,16.27-4.43,20.15-10.16m-63,54.53,10.53-17c7.21,7.95,16.64,11.1,27.92,11.1s24.58-5,24.58-22.56V383c-7,8.87-16.63,14-27.54,14-22.37,0-39.37-15.71-39.37-45.47,0-29.21,16.82-45.47,39.37-45.47,10.72,0,20.33,4.62,27.54,13.68V308.32h23.66V391.5c0,34-26.25,42.33-48.24,42.33-15.35,0-27.18-3.51-38.45-13.31" transform="translate(-149.27 -149.96)"/><path class="cls-1" d="M850,308.32h23.48V397.6H850Zm-2.4-23.67a14.05,14.05,0,1,1,14,14.05,14.16,14.16,0,0,1-14-14.05" transform="translate(-149.27 -149.96)"/><path class="cls-1" d="M958.47,352.86c0-13.86-8.32-25.88-22.92-25.88s-22.74,12-22.74,25.88c0,14.05,8.14,26.07,22.74,26.07s22.92-12,22.92-26.07m-70.06,0c0-25.32,17.75-46.76,47.14-46.76,29.58,0,47.32,21.44,47.32,46.76,0,25.51-17.74,47-47.32,47-29.39,0-47.14-21.45-47.14-47" transform="translate(-149.27 -149.96)"/><path class="cls-1" d="M1058,397.6v-54c0-12.38-6.47-16.64-16.45-16.64a25.43,25.43,0,0,0-20.33,10.54V397.6H997.74V308.32h23.48V320c5.72-6.84,16.63-13.86,31.23-13.86,19.6,0,29,11.09,29,28.46v63Z" transform="translate(-149.27 -149.96)"/><polygon class="cls-1" points="1078.64 247.64 1078.64 195.88 1020.41 195.88 1020.41 247.64 994.16 247.64 994.16 124.34 1020.41 124.34 1020.41 172.78 1078.64 172.78 1078.64 124.34 1105.07 124.34 1105.07 247.64 1078.64 247.64"/><path class="cls-1" d="M1336.34,368.76V337.34c-3.88-5.92-12.38-10.17-20.33-10.17-13.31,0-22.56,10.35-22.56,25.88,0,15.34,9.25,25.88,22.56,25.88,8,0,16.45-4.25,20.33-10.17m0,28.84V386.14c-7,8.87-16.82,13.68-27.54,13.68-22.56,0-39.56-17-39.56-46.77,0-29.21,16.82-46.95,39.56-46.95a34,34,0,0,1,27.35,13.68V308.32H1360V397.6Z" transform="translate(-149.27 -149.96)"/><polygon class="cls-1" points="1229.49 124.34 1229.89 124.34 1252.58 124.34 1252.97 124.34 1252.97 124.74 1252.97 247.24 1252.97 247.64 1252.57 247.64 1229.89 247.64 1229.49 247.64 1229.49 247.25 1229.49 124.74 1229.49 124.34"/><polygon class="cls-1" points="1272.12 124.34 1272.51 124.34 1295.2 124.34 1295.6 124.34 1295.6 124.74 1295.6 247.24 1295.6 247.64 1295.18 247.64 1272.53 247.64 1272.12 247.64 1272.12 247.23 1272.12 124.74 1272.12 124.34"/><path class="cls-1" d="M1526.84,368.76V337.34c-3.88-5.92-12.38-10.17-20.33-10.17-13.31,0-22.55,10.35-22.55,25.88,0,15.34,9.24,25.88,22.55,25.88,8,0,16.45-4.25,20.33-10.17m0,28.84V386.14c-7,8.87-16.82,13.68-27.54,13.68-22.55,0-39.56-17-39.56-46.77,0-29.21,16.82-46.95,39.56-46.95a34,34,0,0,1,27.36,13.68V308.32h23.84V397.6Z" transform="translate(-149.27 -149.96)"/><path class="cls-1" d="M1629.51,397.6v-54c0-12.38-6.47-16.64-16.45-16.64a25.43,25.43,0,0,0-20.33,10.54V397.6h-23.48V308.32h23.48V320c5.73-6.84,16.63-13.86,31.24-13.86,19.59,0,29,11.09,29,28.46v63Z" transform="translate(-149.27 -149.96)"/><path class="cls-1" d="M1734.92,368.76V337.15c-3.88-5.91-12.38-10.17-20.33-10.17-13.31,0-22.55,10.54-22.55,26.07,0,15.34,9.24,25.88,22.55,25.88,8,0,16.45-4.25,20.33-10.17m0,28.84V386.14c-7,8.87-16.82,13.68-27.54,13.68-22.55,0-39.56-17-39.56-46.77,0-29.21,16.82-46.95,39.56-46.95a34.36,34.36,0,0,1,27.54,13.68V274.3h23.66V397.6Z" transform="translate(-149.27 -149.96)"/><path class="cls-2" d="M380,491.52c-.3-1.43-3.28-2.14-8.65-4h0c-10.58-3.65-21.67-10.34-27.51-24.3-6-13.55.67-26.3,3.09-45.43.49-3.84,2.35-20.77-4.45-33.15-7.7-14-19.47-29.65-51.35-24.83-4.9.74-20.33,5.92-29.24-3.81-7.71-8.44-6.49-31-8.12-48.62-2.92-31.67-6.07-45.1-14.34-56.91-11.57-16.53-29.51-23.33-50.53-32.94-22.7-10.37-21.89-32.24-18.14-43.7a81.89,81.89,0,0,1,5.53-12c1.83-3.44,5-7.19,3.21-7.65-3.93-1-13.09,6.38-17.48,11.49-.79.92-1.58,1.89-2.35,2.91-7.23,9.74-23.93,46.41,11.46,75.08,6.52,5.28,26.8,12.6,36.34,30a63,63,0,0,1,9,22.09c2.5,13.06,1,37,1.56,42.67A140,140,0,0,0,221.42,359c7.1,25.64,27.9,39.48,48.39,40.87,9.06.61,28.18-3.37,31.43-3.25,6.27,0,12.57,3.33,14.72,13.77,1.71,8.36-.66,22-.75,22.8-2,16.14.8,35.87,19.26,51.4a51.92,51.92,0,0,0,37,10.82c6.51-.71,8.61-3,8.43-3.92" transform="translate(-149.27 -149.96)"/><path class="cls-3" d="M431.47,349.1c7.72-7.14,35.62-20.37,35.62-61.1,0-11.24-7.24-47.79-46-59.47-7-2.12-15.95-2.73-22.12-2.87a78.85,78.85,0,0,0-21.35,2.53c-13.25,3.46-25.7,8-35.78,7.8-12.62-.22-19.25-8.34-34.48-30.2C301.19,195.44,280.64,163,251.7,153c-8.91-3.11-19.53-3.55-30.15-2.5-12,1.18-17.75,6.12-21.22,10.92-2.44,3.37-3.17,7.27-1.91,8.11.62.42,1.66.28,2.91.1,5-1.11,14.9-.78,19.54-.32,30,3,45.71,29.55,51.63,40.81,8.38,15.88,19.79,44.84,31.68,52.68,24.37,16.07,55.6,5,65.71,3,9.83-2,18.74-6.2,30.48-5.27,15.14,1.21,24.33,12.32,27.2,18.83,10.14,23-7.14,35.22-9.63,37.66-3.73,3.64-6.88,4.76-11.7,8.25-16,11.6-26.3,27.4-21.11,47.32,4.53,12.54,19.71,27.55,23.72,38.55,7.5,20.6,3.17,35.18-.54,43.76a28.49,28.49,0,0,1-15.93,15.84c-2.64,1.37,1,4.26,7.4,4.26,10,0,18.54-6.6,27-16,11-12.32,17.44-33.22,8-57.23-9.82-25-13.73-29.58-12.65-39.73C422.84,355.35,428.7,351.66,431.47,349.1Z" transform="translate(-149.27 -149.96)"/></svg>